<svg width="177" height="141" viewBox="0 0 177 141" fill="none" xmlns="http://www.w3.org/2000/svg">
<path d="M8.256 82.96C7.04 82.96 6.016 82.608 5.184 81.904C4.352 81.2 3.936 80.304 3.936 79.216V57.424C3.936 56.4 4.32 55.536 5.088 54.832C5.92 54.064 6.976 53.68 8.256 53.68C9.536 53.68 10.528 54.064 11.232 54.832C12 55.536 12.384 56.432 12.384 57.52V79.12C12.384 80.208 11.968 81.136 11.136 81.904C10.368 82.608 9.408 82.96 8.256 82.96ZM8.256 48.88C6.912 48.88 5.76 48.464 4.8 47.632C3.84 46.736 3.36 45.616 3.36 44.272C3.36 43.056 3.84 42 4.8 41.104C5.76 40.208 6.912 39.76 8.256 39.76C9.536 39.76 10.624 40.208 11.52 41.104C12.48 42 12.96 43.056 12.96 44.272C12.96 45.616 12.48 46.736 11.52 47.632C10.624 48.464 9.536 48.88 8.256 48.88ZM52.3125 79.408C51.0965 80.368 49.2405 81.2 46.7445 81.904C44.2485 82.608 41.8165 82.96 39.4485 82.96C35.4805 82.96 31.9285 82.096 28.7925 80.368C25.6565 78.576 23.1925 76.112 21.4005 72.976C19.6085 69.84 18.7125 66.288 18.7125 62.32C18.7125 58.16 19.5765 54.576 21.3045 51.568C23.0965 48.56 25.5605 46.256 28.6965 44.656C31.8325 42.992 35.4805 42.16 39.6405 42.16C41.3685 42.16 43.0965 42.32 44.8245 42.64C46.6165 42.96 48.2485 43.472 49.7205 44.176C50.4885 44.56 51.0325 45.072 51.3525 45.712C51.7365 46.288 51.9285 46.928 51.9285 47.632C51.9285 48.656 51.5445 49.616 50.7765 50.512C50.0725 51.344 49.1125 51.76 47.8965 51.76C47.3845 51.76 46.8405 51.664 46.2645 51.472C45.1125 51.024 43.8645 50.672 42.5205 50.416C41.1765 50.096 39.9925 49.936 38.9685 49.936C35.6405 49.936 32.8565 51.056 30.6165 53.296C28.4405 55.536 27.3525 58.544 27.3525 62.32C27.3525 66.352 28.4725 69.52 30.7125 71.824C33.0165 74.128 35.9605 75.28 39.5445 75.28C41.0165 75.28 42.5845 75.024 44.2485 74.512C45.9125 74 47.2565 73.36 48.2805 72.592C48.9845 72.144 49.7525 71.92 50.5845 71.92C51.6725 71.92 52.5365 72.304 53.1765 73.072C53.8805 73.776 54.2325 74.672 54.2325 75.76C54.2325 77.168 53.5925 78.384 52.3125 79.408ZM72.4763 82.96C68.1883 82.96 64.7003 81.616 62.0123 78.928C59.3883 76.176 58.0763 72.528 58.0763 67.984C58.0763 63.44 59.3563 59.856 61.9163 57.232C64.5403 54.544 67.9643 53.2 72.1883 53.2C75.1963 53.2 77.8203 54.256 80.0603 56.368C80.3163 55.6 80.7963 54.96 81.5002 54.448C82.2043 53.936 83.0363 53.68 83.9963 53.68C85.2763 53.68 86.3003 54.064 87.0683 54.832C87.9003 55.536 88.3163 56.4 88.3163 57.424V79.216C88.3163 80.304 87.9003 81.2 87.0683 81.904C86.3003 82.608 85.2763 82.96 83.9963 82.96C81.8843 82.96 80.5723 82.032 80.0603 80.176C78.0123 82.032 75.4843 82.96 72.4763 82.96ZM73.1483 75.184C75.1963 75.184 76.8283 74.512 78.0443 73.168C79.2603 71.76 79.8683 70.032 79.8683 67.984C79.8683 65.872 79.2603 64.176 78.0443 62.896C76.8283 61.616 75.1963 60.976 73.1483 60.976C71.1643 60.976 69.5323 61.616 68.2523 62.896C67.0363 64.176 66.4283 65.872 66.4283 67.984C66.4283 70.032 67.0363 71.76 68.2523 73.168C69.5323 74.512 71.1643 75.184 73.1483 75.184ZM99.9435 82.96C98.7275 82.96 97.7035 82.608 96.8715 81.904C96.0395 81.2 95.6235 80.304 95.6235 79.216V43.504C95.6235 42.48 96.0075 41.616 96.7755 40.912C97.6075 40.144 98.6635 39.76 99.9435 39.76C101.16 39.76 102.152 40.144 102.92 40.912C103.688 41.616 104.072 42.512 104.072 43.6V79.12C104.072 80.208 103.656 81.136 102.824 81.904C102.056 82.608 101.096 82.96 99.9435 82.96ZM125.376 82.96C121.024 82.96 117.344 81.68 114.336 79.12C111.392 76.496 109.92 72.912 109.92 68.368C109.92 63.632 111.36 59.92 114.24 57.232C117.184 54.544 120.864 53.2 125.28 53.2C128.416 53.2 131.008 53.776 133.056 54.928C135.104 56.08 136.64 57.552 137.664 59.344C138.688 61.136 139.2 63.024 139.2 65.008C139.2 68.336 137.728 70 134.784 70H118.848C118.336 70 118.08 70.32 118.08 70.96C118.08 72.432 118.88 73.616 120.48 74.512C122.144 75.344 124 75.76 126.048 75.76C127.328 75.76 128.608 75.6 129.888 75.28C131.168 74.896 132.288 74.352 133.248 73.648C133.888 73.2 134.56 72.976 135.264 72.976C136.224 72.976 137.024 73.328 137.664 74.032C138.368 74.736 138.72 75.568 138.72 76.528C138.72 77.68 138.112 78.768 136.896 79.792C135.744 80.752 134.048 81.52 131.808 82.096C129.632 82.672 127.488 82.96 125.376 82.96ZM130.368 64.432C130.496 64.432 130.656 64.4 130.848 64.336C131.104 64.272 131.232 64.048 131.232 63.664C131.232 62.704 130.624 61.84 129.408 61.072C128.256 60.24 126.752 59.824 124.896 59.824C122.912 59.824 121.28 60.272 120 61.168C118.784 62 118.176 62.864 118.176 63.76C118.176 64.208 118.432 64.432 118.944 64.432H130.368ZM157.03 95.92C155.238 95.92 153.51 95.728 151.846 95.344C150.182 95.024 148.678 94.512 147.334 93.808C145.798 92.976 145.03 91.696 145.03 89.968C145.03 88.88 145.414 87.92 146.182 87.088C146.95 86.32 147.846 85.936 148.87 85.936C149.702 85.936 150.438 86.128 151.078 86.512C152.102 87.088 153.158 87.504 154.246 87.76C155.398 88.016 156.518 88.144 157.606 88.144C160.038 88.144 161.83 87.6 162.982 86.512C164.198 85.424 164.806 83.984 164.806 82.192V79.984C162.758 81.968 160.23 82.96 157.222 82.96C152.934 82.96 149.478 81.616 146.854 78.928C144.294 76.176 143.014 72.528 143.014 67.984C143.014 63.44 144.262 59.856 146.758 57.232C149.318 54.544 152.71 53.2 156.934 53.2C160.006 53.2 162.662 54.384 164.902 56.752C165.094 55.856 165.542 55.12 166.246 54.544C167.014 53.968 167.942 53.68 169.03 53.68C170.31 53.68 171.334 54.064 172.102 54.832C172.87 55.6 173.254 56.56 173.254 57.712V82.384C173.254 86.48 171.814 89.744 168.934 92.176C166.118 94.672 162.15 95.92 157.03 95.92ZM157.894 75.184C159.814 75.184 161.35 74.512 162.502 73.168C163.718 71.76 164.326 70.032 164.326 67.984C164.326 65.872 163.718 64.176 162.502 62.896C161.35 61.616 159.814 60.976 157.894 60.976C155.91 60.976 154.31 61.616 153.094 62.896C151.942 64.176 151.366 65.872 151.366 67.984C151.366 70.032 151.942 71.76 153.094 73.168C154.31 74.512 155.91 75.184 157.894 75.184Z" fill="black" fill-opacity="0.9"/>
<path d="M5.4 111.5C5.06667 111.5 4.78333 111.383 4.55 111.15C4.35 110.95 4.25 110.683 4.25 110.35V97.85C4.25 97.4833 4.36667 97.2167 4.6 97.05C4.83333 96.85 5.1 96.75 5.4 96.75C5.66667 96.75 5.91667 96.85 6.15 97.05C6.38333 97.2167 6.5 97.4833 6.5 97.85V98.9C7.06667 98.1 7.78333 97.5 8.65 97.1C9.55 96.7 10.4667 96.5 11.4 96.5C12.5 96.5 13.4833 96.7667 14.35 97.3C15.25 97.8333 15.9333 98.65 16.4 99.75C17.0333 98.4833 17.8667 97.6333 18.9 97.2C19.9667 96.7333 20.9667 96.5 21.9 96.5C23.4667 96.5 24.7833 97.05 25.85 98.15C26.95 99.25 27.5 100.983 27.5 103.35V110.35C27.5 110.683 27.4 110.95 27.2 111.15C27 111.383 26.7333 111.5 26.4 111.5C26.0667 111.5 25.7833 111.383 25.55 111.15C25.35 110.95 25.25 110.683 25.25 110.35V103.5C25.25 101.8 24.9167 100.567 24.25 99.8C23.6167 99.0333 22.7333 98.65 21.6 98.65C20.4667 98.65 19.5667 98.9333 18.9 99.5C18.2333 100.033 17.75 100.7 17.45 101.5C17.15 102.3 17 103.117 17 103.95V110.35C17 110.683 16.9 110.95 16.7 111.15C16.5 111.383 16.2333 111.5 15.9 111.5C15.5667 111.5 15.2833 111.383 15.05 111.15C14.85 110.95 14.75 110.683 14.75 110.35V103.55C14.75 101.85 14.4167 100.617 13.75 99.85C13.1167 99.05 12.2333 98.65 11.1 98.65C9.96667 98.65 9.06667 98.9333 8.4 99.5C7.73333 100.033 7.25 100.717 6.95 101.55C6.65 102.35 6.5 103.15 6.5 103.95V110.35C6.5 110.683 6.4 110.95 6.2 111.15C6 111.383 5.73333 111.5 5.4 111.5ZM49.0902 111.5C47.6902 111.5 46.4402 111.167 45.3402 110.5C44.2402 109.833 43.3569 108.933 42.6902 107.8C42.0569 106.633 41.7402 105.333 41.7402 103.9C41.7402 102.467 42.0569 101.2 42.6902 100.1C43.3569 99 44.2402 98.1333 45.3402 97.5C46.4402 96.8333 47.6902 96.5 49.0902 96.5C50.4902 96.5 51.7402 96.8333 52.8402 97.5C53.9736 98.1333 54.8569 99 55.4902 100.1C56.1569 101.2 56.4902 102.467 56.4902 103.9C56.4902 105.333 56.1569 106.633 55.4902 107.8C54.8569 108.933 53.9736 109.833 52.8402 110.5C51.7402 111.167 50.4902 111.5 49.0902 111.5ZM49.0902 109.45C50.6569 109.45 51.9069 108.917 52.8402 107.85C53.7736 106.783 54.2402 105.467 54.2402 103.9C54.2402 102.4 53.7736 101.133 52.8402 100.1C51.9069 99.0667 50.6569 98.55 49.0902 98.55C47.5569 98.55 46.3236 99.0667 45.3902 100.1C44.4902 101.133 44.0402 102.4 44.0402 103.9C44.0402 105.467 44.4902 106.783 45.3902 107.85C46.3236 108.917 47.5569 109.45 49.0902 109.45ZM78.4137 111.5C77.347 111.5 76.3637 111.3 75.4637 110.9C74.597 110.467 73.8637 109.883 73.2637 109.15V110.1C73.2637 110.433 73.1637 110.717 72.9637 110.95C72.7637 111.15 72.497 111.25 72.1637 111.25C71.8303 111.25 71.547 111.15 71.3137 110.95C71.1137 110.717 71.0137 110.433 71.0137 110.1V90.6C71.0137 90.2333 71.1303 89.9667 71.3637 89.8C71.597 89.6 71.8637 89.5 72.1637 89.5C72.4303 89.5 72.6803 89.6 72.9137 89.8C73.147 89.9667 73.2637 90.2333 73.2637 90.6V98.75C74.5637 97.25 76.2803 96.5 78.4137 96.5C80.4803 96.5 82.1803 97.2 83.5137 98.6C84.847 99.9667 85.5137 101.733 85.5137 103.9C85.5137 106.133 84.847 107.967 83.5137 109.4C82.1803 110.8 80.4803 111.5 78.4137 111.5ZM78.4137 109.45C79.847 109.45 80.997 108.917 81.8637 107.85C82.7637 106.783 83.2137 105.467 83.2137 103.9C83.2137 102.4 82.7637 101.133 81.8637 100.1C80.997 99.0667 79.847 98.55 78.4137 98.55C76.8803 98.55 75.6303 99 74.6637 99.9C73.7303 100.8 73.2637 102.133 73.2637 103.9C73.2637 105.733 73.7303 107.117 74.6637 108.05C75.6303 108.983 76.8803 109.45 78.4137 109.45ZM101.425 111.5C101.092 111.5 100.809 111.383 100.575 111.15C100.375 110.95 100.275 110.683 100.275 110.35V97.6C100.275 97.2333 100.392 96.9667 100.625 96.8C100.859 96.6 101.125 96.5 101.425 96.5C101.692 96.5 101.942 96.6 102.175 96.8C102.409 96.9667 102.525 97.2333 102.525 97.6V110.35C102.525 110.683 102.425 110.95 102.225 111.15C102.025 111.383 101.759 111.5 101.425 111.5ZM101.275 93.2C100.742 93.2 100.309 93.05 99.9754 92.75C99.6754 92.4167 99.5254 92 99.5254 91.5C99.5254 90.9667 99.6754 90.55 99.9754 90.25C100.309 89.9167 100.742 89.75 101.275 89.75C101.809 89.75 102.225 89.9167 102.525 90.25C102.859 90.55 103.025 90.9667 103.025 91.5C103.025 92 102.859 92.4167 102.525 92.75C102.225 93.05 101.809 93.2 101.275 93.2ZM118.908 111.5C118.574 111.5 118.291 111.383 118.058 111.15C117.858 110.95 117.758 110.683 117.758 110.35V90.6C117.758 90.2333 117.874 89.9667 118.108 89.8C118.341 89.6 118.608 89.5 118.908 89.5C119.174 89.5 119.424 89.6 119.658 89.8C119.891 89.9667 120.008 90.2333 120.008 90.6V110.35C120.008 110.683 119.908 110.95 119.708 111.15C119.508 111.383 119.241 111.5 118.908 111.5ZM142.196 111.5C139.863 111.5 137.996 110.817 136.596 109.45C135.196 108.05 134.496 106.133 134.496 103.7C134.496 102.367 134.796 101.167 135.396 100.1C135.996 99 136.829 98.1333 137.896 97.5C138.996 96.8333 140.279 96.5 141.746 96.5C143.279 96.5 144.546 96.8333 145.546 97.5C146.546 98.1333 147.279 98.9333 147.746 99.9C148.246 100.833 148.496 101.767 148.496 102.7C148.496 103.267 148.363 103.733 148.096 104.1C147.863 104.467 147.513 104.65 147.046 104.65H137.446C137.246 104.65 137.096 104.667 136.996 104.7C136.929 104.733 136.896 104.85 136.896 105.05C136.896 105.617 137.079 106.233 137.446 106.9C137.813 107.567 138.329 108.15 138.996 108.65C139.696 109.117 140.496 109.383 141.396 109.45C142.363 109.517 143.313 109.417 144.246 109.15C145.179 108.883 146.013 108.467 146.746 107.9C146.913 107.767 147.096 107.7 147.296 107.7C147.529 107.7 147.746 107.8 147.946 108C148.179 108.2 148.296 108.45 148.296 108.75C148.296 109.05 148.146 109.35 147.846 109.65C147.046 110.283 146.146 110.75 145.146 111.05C144.146 111.35 143.163 111.5 142.196 111.5ZM145.346 102.9C145.613 102.9 145.813 102.8 145.946 102.6C146.079 102.367 146.113 102.083 146.046 101.75C145.946 100.883 145.496 100.117 144.696 99.45C143.896 98.75 142.913 98.4 141.746 98.4C140.879 98.4 140.079 98.6167 139.346 99.05C138.646 99.45 138.079 99.9667 137.646 100.6C137.213 101.233 136.996 101.9 136.996 102.6C136.996 102.767 137.146 102.85 137.446 102.85L145.346 102.9Z" fill="#818181" fill-opacity="0.9"/>
</svg>
