<svg width="41" height="33" viewBox="0 0 41 33" fill="none" xmlns="http://www.w3.org/2000/svg">
<path d="M15.8348 16.5C18.1848 16.5 19.9181 14.7666 19.9181 12.4166C19.9181 10.0667 18.1848 8.33331 15.8348 8.33331C13.4848 8.33331 11.7515 10.0667 11.7515 12.4166C11.7515 14.7666 13.4828 16.5 15.8348 16.5Z" fill="black" fill-opacity="0.2"/>
<path d="M36.8334 0.166687H4.16671C1.91475 0.166687 0.083374 1.88373 0.083374 3.99481V29.0052C0.083374 31.1163 1.91475 32.8334 4.16671 32.8334H36.8334C39.0853 32.8334 40.9167 31.1163 40.9167 29.0052V3.99481C40.9167 1.88373 39.0853 0.166687 36.8334 0.166687ZM36.8334 28.75L4.16671 28.7276V4.25002L36.8334 4.27248V28.75Z" fill="black" fill-opacity="0.2"/>
<path d="M24.5833 10.375H32.75V14.4583H24.5833V10.375ZM26.625 18.5417H32.75V22.625H26.625V18.5417ZM23.4196 23.7193C23.4196 20.9141 19.9978 18.0313 15.8348 18.0313C11.6718 18.0313 8.25 20.9141 8.25 23.7193V24.6667H23.4196V23.7193Z" fill="black" fill-opacity="0.2"/>
</svg>
