<svg width="32" height="32" viewBox="0 0 32 32" fill="none" xmlns="http://www.w3.org/2000/svg">
<path d="M28.25 0.25H3.75C1.825 0.25 0.25 1.825 0.25 3.75V28.25C0.25 30.175 1.825 31.75 3.75 31.75H28.25C30.175 31.75 31.75 30.175 31.75 28.25V3.75C31.75 1.825 30.175 0.25 28.25 0.25ZM16 5.5C19.3775 5.5 22.125 8.2475 22.125 11.625C22.125 15.0025 19.3775 17.75 16 17.75C12.6225 17.75 9.875 15.0025 9.875 11.625C9.875 8.2475 12.6225 5.5 16 5.5ZM28.25 28.25H3.75V27.8475C3.75 26.7625 4.24 25.7475 5.08 25.0825C8.0725 22.685 11.87 21.25 16 21.25C20.13 21.25 23.9275 22.685 26.92 25.0825C27.76 25.7475 28.25 26.78 28.25 27.8475V28.25Z" fill="black" fill-opacity="0.2"/>
</svg>
